<svg width="11" height="7" viewBox="0 0 11 7" fill="none" xmlns="http://www.w3.org/2000/svg">
<g>
<path fill-rule="evenodd" clip-rule="evenodd" d="M9.32895 4.068C9.68317 4.41383 10.057 4.7392 10.3747 5.11991C10.5151 5.28909 10.6479 5.46367 10.7496 5.66C10.8936 5.9391 10.7631 6.24623 10.5129 6.2629L8.95723 6.2622C8.556 6.29549 8.23592 6.13396 7.96678 5.85963C7.7514 5.64025 7.55194 5.40676 7.34484 5.17997C7.25993 5.08728 7.17106 5.00006 7.0649 4.93112C6.85253 4.79327 6.66819 4.83548 6.54683 5.05697C6.42323 5.28225 6.3952 5.5317 6.38306 5.78276C6.36639 6.14908 6.25567 6.24539 5.8877 6.26216C5.10131 6.29925 4.35499 6.18027 3.66168 5.78357C3.05043 5.43385 2.57643 4.94013 2.16387 4.3812C1.36061 3.29283 0.745467 2.0969 0.192601 0.867461C0.0681558 0.590467 0.159166 0.441778 0.464789 0.436515C0.97229 0.426657 1.47972 0.427358 1.98782 0.435814C2.19408 0.438831 2.33063 0.557137 2.41027 0.751997C2.68485 1.42713 3.02082 2.06946 3.44254 2.66485C3.55484 2.82337 3.66936 2.98188 3.83243 3.09345C4.01284 3.21698 4.1502 3.17604 4.23507 2.97507C4.28892 2.84764 4.3125 2.71039 4.32464 2.57391C4.36484 2.10437 4.37014 1.63564 4.29962 1.16775C4.25633 0.875741 4.09185 0.686705 3.80047 0.631446C3.65178 0.603273 3.67392 0.547945 3.74591 0.463075C3.87096 0.316701 3.98856 0.225586 4.223 0.225586H5.98113C6.25791 0.280213 6.31938 0.404553 6.35727 0.683056L6.35878 2.63598C6.35576 2.74379 6.41264 3.06373 6.60683 3.13509C6.76226 3.1859 6.8647 3.06156 6.95796 2.963C7.3789 2.51623 7.67934 1.98824 7.94773 1.44152C8.06685 1.20112 8.16926 0.951454 8.26851 0.702002C8.34205 0.516895 8.45745 0.425815 8.66595 0.429849L10.3581 0.431358C10.4082 0.431358 10.459 0.432095 10.5076 0.44041C10.7927 0.489002 10.8709 0.611659 10.7828 0.890091C10.644 1.32693 10.3741 1.69097 10.1101 2.05669C9.82789 2.44715 9.52609 2.82424 9.24626 3.21702C8.98915 3.57569 9.00957 3.75648 9.32895 4.068Z" fill="black"/>
</g>
</svg>
