<svg width="11" height="12" viewBox="0 0 11 12" fill="none" xmlns="http://www.w3.org/2000/svg">
<g opacity="0.6">
<path d="M7.7085 0.914062H3.02385C1.43296 0.914062 0.138672 2.20841 0.138672 3.7993V8.48395C0.138672 10.0749 1.43296 11.3692 3.02385 11.3692H7.7085C9.29951 11.3692 10.5938 10.0748 10.5938 8.48395V3.7993C10.5939 2.20841 9.29951 0.914062 7.7085 0.914062ZM9.66623 8.48395C9.66623 9.5634 8.78801 10.4416 7.70856 10.4416H3.02385C1.94446 10.4416 1.0663 9.5634 1.0663 8.48395V3.7993C1.0663 2.71991 1.94446 1.84169 3.02385 1.84169H7.7085C8.78795 1.84169 9.66617 2.71991 9.66617 3.7993V8.48395H9.66623Z" fill="black"/>
<path d="M5.36638 3.44727C3.88088 3.44727 2.67236 4.65578 2.67236 6.14129C2.67236 7.62673 3.88088 8.83518 5.36638 8.83518C6.85189 8.83518 8.06041 7.62673 8.06041 6.14129C8.06041 4.65578 6.85189 3.44727 5.36638 3.44727ZM5.36638 7.90749C4.39244 7.90749 3.59999 7.11517 3.59999 6.14122C3.59999 5.16721 4.39237 4.37483 5.36638 4.37483C6.3404 4.37483 7.13278 5.16721 7.13278 6.14122C7.13278 7.11517 6.34033 7.90749 5.36638 7.90749Z" fill="black"/>
<path d="M8.17343 2.66113C7.9947 2.66113 7.81913 2.73349 7.69291 2.86026C7.56608 2.98642 7.49316 3.16205 7.49316 3.34139C7.49316 3.52018 7.56614 3.69575 7.69291 3.82252C7.81907 3.94868 7.9947 4.02166 8.17343 4.02166C8.35277 4.02166 8.52778 3.94868 8.65456 3.82252C8.78133 3.69575 8.85369 3.52012 8.85369 3.34139C8.85369 3.16205 8.78133 2.98642 8.65456 2.86026C8.5284 2.73349 8.35277 2.66113 8.17343 2.66113Z" fill="black"/>
</g>
</svg>
