<svg width="6" height="10" viewBox="0 0 6 10" fill="none" xmlns="http://www.w3.org/2000/svg">
<g>
<path d="M5.6977 0.0165402L4.51869 0.0146484C3.19411 0.0146484 2.33811 0.892876 2.33811 2.25217V3.28381H1.15267C1.05024 3.28381 0.967285 3.36686 0.967285 3.46929V4.96403C0.967285 5.06647 1.05033 5.14942 1.15267 5.14942H2.33811V8.92111C2.33811 9.02355 2.42107 9.1065 2.5235 9.1065H4.07017C4.1726 9.1065 4.25555 9.02346 4.25555 8.92111V5.14942H5.64161C5.74405 5.14942 5.827 5.06647 5.827 4.96403L5.82757 3.46929C5.82757 3.42011 5.80799 3.37301 5.77328 3.3382C5.73856 3.30339 5.69127 3.28381 5.64209 3.28381H4.25555V2.40927C4.25555 1.98893 4.35572 1.77555 4.90328 1.77555L5.69751 1.77527C5.79985 1.77527 5.88281 1.69222 5.88281 1.58988V0.201928C5.88281 0.0996809 5.79995 0.0167293 5.6977 0.0165402Z" fill="black"/>
</g>
</svg>
