<svg width="10" height="10" viewBox="0 0 10 10" fill="none" xmlns="http://www.w3.org/2000/svg">
<path d="M8.49353 6.37305V8.65739H1.50607V6.37305H0.163086V9.32888C0.163086 9.69949 0.463306 10 0.835579 10H9.16402C9.53596 10 9.83651 9.69982 9.83651 9.32888V6.37305H8.49353Z" fill="#4AB6E8"/>
<path d="M4.8768 6.14651L2.95406 3.82314C2.95406 3.82314 2.66151 3.54693 2.97874 3.54693C3.29598 3.54693 4.06221 3.54693 4.06221 3.54693C4.06221 3.54693 4.06221 3.36113 4.06221 3.07459C4.06221 2.25766 4.06221 0.770899 4.06221 0.164788C4.06221 0.164788 4.01917 0 4.26736 0C4.51754 0 5.61334 0 5.79247 0C5.97127 0 5.96727 0.138768 5.96727 0.138768C5.96727 0.726533 5.96727 2.26466 5.96727 3.05491C5.96727 3.31109 5.96727 3.47722 5.96727 3.47722C5.96727 3.47722 6.58172 3.47722 6.96734 3.47722C7.35229 3.47722 7.06241 3.76643 7.06241 3.76643C7.06241 3.76643 5.42654 5.93802 5.19837 6.16585C5.03425 6.33098 4.8768 6.14651 4.8768 6.14651Z" fill="#4AB6E8"/>
</svg>
