<svg width="17" height="13" viewBox="0 0 17 13" fill="none" xmlns="http://www.w3.org/2000/svg">
<path d="M14.9247 0.03125H2.07883C0.932133 0.03125 0 0.963383 0 2.11008V10.8897C0 12.0364 0.932133 12.9686 2.07883 12.9686H14.9212C16.0679 12.9686 17 12.0364 17 10.8897V2.1136C17.0035 0.966901 16.0714 0.03125 14.9247 0.03125ZM16.0538 10.8897C16.0538 11.5123 15.5473 12.0188 14.9247 12.0188H2.07883C1.45624 12.0188 0.949721 11.5123 0.949721 10.8897V2.1136C0.949721 1.49101 1.45624 0.984488 2.07883 0.984488H14.9212C15.5438 0.984488 16.0503 1.49101 16.0503 2.1136V10.8897H16.0538Z" fill="#4AB6E8"/>
<path d="M10.7212 6.38553L14.8789 2.657C15.0723 2.48112 15.0899 2.18214 14.9141 1.98516C14.7382 1.7917 14.4392 1.77411 14.2422 1.94998L8.50871 7.09606L7.39015 6.0971C7.38663 6.09358 7.38312 6.09006 7.38312 6.08654C7.35849 6.06192 7.33387 6.04082 7.30573 6.01971L2.75411 1.94646C2.55713 1.77059 2.25814 1.78818 2.08227 1.98516C1.90639 2.18214 1.92398 2.48112 2.12096 2.657L6.32787 6.41719L2.13855 10.3392C1.9486 10.5186 1.93805 10.8176 2.11744 11.011C2.21241 11.1095 2.33904 11.1623 2.46567 11.1623C2.58175 11.1623 2.69783 11.1201 2.78928 11.0356L7.04192 7.05737L8.19566 8.08799C8.28711 8.1689 8.39967 8.20759 8.51223 8.20759C8.62479 8.20759 8.74087 8.16538 8.8288 8.08448L10.0142 7.02219L14.2422 11.0392C14.3337 11.1271 14.4533 11.1693 14.5693 11.1693C14.696 11.1693 14.8191 11.1201 14.9141 11.0216C15.0934 10.8316 15.0864 10.5291 14.8965 10.3497L10.7212 6.38553Z" fill="#4AB6E8"/>
</svg>
