<svg width="105" height="53" viewBox="0 0 105 53" fill="none" xmlns="http://www.w3.org/2000/svg">
<path d="M69.5564 17.3532C65.6714 15.8458 62.6411 13.5848 60.4655 10.5701C58.2899 7.55538 57.2021 3.99255 57.2021 -0.118414C57.2021 -6.0108 59.3 -10.8069 63.4958 -14.5068C67.6916 -18.0696 73.0529 -19.8511 79.5797 -19.8511C86.1065 -19.8511 91.5455 -18.0011 95.8967 -14.3013C100.093 -10.6014 102.19 -5.87377 102.19 -0.118411C102.19 2.62223 101.802 5.36288 101.025 8.10353C100.248 10.8442 98.5385 14.9551 95.8967 20.4364L82.3769 50.0354L59.3 50.0354L69.5564 17.3532ZM14.5447 17.3532C10.6597 15.8458 7.62942 13.5848 5.45382 10.5701C3.27822 7.55538 2.19042 3.99255 2.19042 -0.118418C2.19042 -6.01081 4.28832 -10.8069 8.48413 -14.5068C12.6799 -18.0697 18.0412 -19.8511 24.5681 -19.8511C31.0949 -19.8511 36.5339 -18.0011 40.8851 -14.3013C45.0809 -10.6014 47.1788 -5.87377 47.1788 -0.118415C47.1788 2.62223 46.7903 5.36287 46.0133 8.10352C45.2363 10.8442 43.5269 14.9551 40.8851 20.4364L27.3652 50.0354L4.28831 50.0354L14.5447 17.3532Z" stroke="url(#paint0_linear)" stroke-width="4" stroke-linecap="round" stroke-linejoin="round"/>
<defs>
<linearGradient id="paint0_linear" x1="74.2437" y1="69.145" x2="-2.96868" y2="50.947" gradientUnits="userSpaceOnUse">
<stop stop-color="#FFD749"/>
<stop offset="1" stop-color="#ECB609"/>
</linearGradient>
</defs>
</svg>
